<?xml version="1.0" encoding="UTF-8" standalone="no"?>
<!DOCTYPE svg PUBLIC "-//W3C//DTD SVG 1.1//EN" "http://www.w3.org/Graphics/SVG/1.1/DTD/svg11.dtd">
<svg width="100%" height="100%" viewBox="0 0 103 103" version="1.1" xmlns="http://www.w3.org/2000/svg" xmlns:xlink="http://www.w3.org/1999/xlink" xml:space="preserve" xmlns:serif="http://www.serif.com/" style="fill-rule:evenodd;clip-rule:evenodd;stroke-linejoin:round;stroke-miterlimit:1.41421;">
    <path d="M93.986,78.86C92.017,78.408 89.928,78.123 87.815,78.123C84.201,78.123 80.912,78.748 78.487,79.761C78.22,79.892 78.03,80.171 78.03,80.489C78.03,80.606 78.059,80.723 78.103,80.823C78.389,81.653 77.919,82.553 75.571,83.07C72.091,83.835 69.893,87.426 68.637,88.619C67.16,90.021 62.991,90.88 63.618,90.046C64.109,89.394 65.985,87.355 67.127,85.152C68.147,83.183 69.056,82.623 70.309,80.744C70.676,80.196 72.1,78.259 72.515,76.726C72.98,75.234 72.823,73.356 73.002,72.586C73.258,71.471 74.309,69.054 74.388,67.691C74.434,66.917 71.165,68.792 69.615,68.792C68.065,68.792 66.555,67.862 65.17,67.795C63.455,67.717 62.353,69.119 60.802,68.874C59.917,68.732 59.171,67.951 57.623,67.893C55.418,67.813 52.725,69.119 47.666,68.956C42.692,68.794 38.095,62.668 37.468,61.694C36.733,60.552 35.836,60.552 34.857,61.45C33.877,62.347 32.671,61.642 32.328,61.039C31.675,59.898 29.931,56.561 27.228,55.861C23.49,54.893 21.598,57.93 21.844,60.348C22.093,62.801 23.678,63.489 24.414,64.794C25.148,66.098 25.523,66.939 26.905,67.515C27.884,67.927 28.249,68.529 27.958,69.335C27.702,70.034 26.683,70.193 26.013,70.227C24.589,70.295 23.591,69.909 22.863,69.443C22.016,68.902 21.328,68.153 20.589,66.881C19.734,65.477 18.388,64.865 16.819,64.865C16.071,64.865 15.372,65.062 14.75,65.382C12.292,66.664 9.366,67.419 6.215,67.419L2.662,67.422C9.475,87.63 28.583,102.183 51.091,102.183C69.07,102.183 84.879,92.898 93.986,78.86" style="fill:white;fill-rule:nonzero;"/>
    <path d="M51.096,0C22.877,0 0,22.875 0,51.096C0,56.808 0.937,62.3 2.666,67.428L6.219,67.428C9.37,67.428 12.296,66.669 14.754,65.391C15.375,65.071 16.077,64.875 16.824,64.875C18.393,64.875 19.738,65.485 20.594,66.889C21.332,68.162 22.02,68.911 22.867,69.449C23.595,69.916 24.594,70.303 26.018,70.236C26.688,70.203 27.707,70.042 27.963,69.342C28.254,68.538 27.889,67.932 26.91,67.525C25.528,66.948 25.152,66.103 24.418,64.799C23.683,63.494 22.097,62.806 21.848,60.354C21.602,57.937 23.495,54.9 27.232,55.869C29.935,56.568 31.679,59.907 32.332,61.049C32.676,61.65 33.881,62.353 34.861,61.459C35.84,60.559 36.737,60.56 37.473,61.703C38.1,62.677 42.697,68.804 47.672,68.965C52.731,69.127 55.422,67.821 57.627,67.902C59.175,67.961 59.922,68.738 60.807,68.881C62.358,69.126 63.459,67.723 65.174,67.805C66.559,67.873 68.07,68.799 69.619,68.799C71.169,68.799 74.438,66.929 74.393,67.699C74.313,69.063 73.262,71.48 73.006,72.592C72.827,73.365 72.985,75.241 72.52,76.736C72.105,78.266 70.681,80.203 70.314,80.754C69.062,82.632 68.152,83.192 67.131,85.16C65.989,87.363 64.114,89.401 63.623,90.055C62.996,90.889 67.165,90.028 68.643,88.627C69.898,87.433 72.096,83.842 75.576,83.078C77.924,82.563 78.394,81.662 78.107,80.83C78.063,80.734 78.035,80.613 78.035,80.498C78.035,80.18 78.225,79.902 78.492,79.768C80.917,78.759 84.204,78.133 87.818,78.133C89.932,78.133 92.021,78.414 93.99,78.869C99.178,70.871 102.19,61.337 102.19,51.096C102.19,22.875 79.316,0 51.096,0Z" style="fill:rgb(16,15,13);fill-rule:nonzero;"/>
    <path d="M62.346,74.18C62.608,74.434 63.062,75.3 62.507,76.392C62.197,76.973 61.863,77.379 61.265,77.857C60.546,78.434 59.141,79.098 57.215,77.877C56.18,77.22 56.115,76.999 54.686,77.183C53.664,77.318 53.257,76.287 53.624,75.428C53.992,74.573 55.502,73.881 57.378,74.981C58.222,75.477 59.539,76.526 60.692,75.597C61.169,75.214 61.455,74.96 62.118,74.191C62.149,74.16 62.19,74.14 62.237,74.14C62.279,74.14 62.317,74.156 62.346,74.18" style="fill:rgb(16,15,13);fill-rule:nonzero;"/>
    <path d="M58.773,10.535C57.604,10.58 56.423,10.75 55.271,11.045C53.575,11.48 50.257,13.206 44.104,11.82C33.453,9.422 31.875,14.755 31.266,17.076C30.653,19.401 29.186,26.004 29.186,26.004C28.696,28.694 28.056,33.369 44.592,36.52C52.297,37.986 52.687,39.976 53.027,41.408C53.639,43.974 54.618,45.444 55.719,46.178C56.819,46.914 55.718,47.522 54.496,47.646C51.215,47.987 39.089,44.507 31.916,40.432C26.046,36.844 25.949,33.615 27.293,30.875C18.427,29.916 11.772,31.707 10.566,35.904C8.496,43.107 26.401,55.409 46.791,61.584C68.19,68.062 90.2,63.54 92.646,50.09C93.756,43.98 88.61,39.46 79.93,37.502C79.424,39.199 78.705,41.368 75.51,43.008C75.045,43.247 74.868,42.857 75.082,42.49C76.29,40.437 76.504,39.923 76.855,39.113C77.347,37.929 77.603,36.241 76.627,32.729C74.705,25.813 70.696,16.571 67.783,13.572C65.674,11.402 62.281,10.402 58.773,10.535ZM59.736,12.904C59.833,12.904 59.929,12.905 60.027,12.906C63.302,12.98 65.925,14.282 65.887,15.812C65.847,17.345 63.163,18.526 59.887,18.453C58.827,18.428 57.832,18.274 56.975,18.027C56.874,18.001 56.801,17.915 56.801,17.812C56.801,17.71 56.873,17.623 56.977,17.598C59.019,17.125 60.4,16.352 60.303,15.621C60.175,14.653 57.501,14.128 54.332,14.445C53.985,14.482 53.646,14.527 53.318,14.578C53.31,14.578 53.302,14.58 53.293,14.58C53.201,14.58 53.127,14.509 53.127,14.426C53.127,14.363 53.165,14.308 53.221,14.283C54.365,13.679 56.072,13.199 58.025,13C58.612,12.94 59.185,12.907 59.736,12.904ZM35.451,19.059C35.974,19.038 36.457,19.316 36.688,19.602C37.246,20.297 38.44,21.436 39.988,21.395C41.537,21.353 43.324,21.029 45.816,21.029C48.342,21.029 50.042,21.973 50.137,22.783C50.219,23.475 49.931,24.127 47.119,24.33C41.217,24.757 40.604,25.394 39.498,26.572C37.939,28.232 35.887,24.418 35.887,24.418C34.655,24.158 33.161,22.171 33.967,20.316C34.364,19.399 34.928,19.079 35.451,19.059Z" style="fill:rgb(205,30,37);fill-rule:nonzero;"/>
</svg>
